<svg xmlns="http://www.w3.org/2000/svg" version="1.1" viewBox="0 0 1254 1254"><path fill="red" d="m359.967 620.615 1.233-.021 4.213 29.514 7.89 28.218 7.739 19.59.043 2.465-2.465.043-2.357 6.205-15.57 26.161-12.024 17.47-12.023 17.469-16.846 23.718-12.045 16.237-2.379 4.972 42.814-19.24 29.363-12.84 2.487 1.19-17.885 34.83-15.527 28.627-17.906 33.599-16.738 29.88-4.779 8.713 9.73-7.567 15.786-13.837 17.017-13.858 17.018-13.858 21.883-17.641 14.596-11.35 14.596-11.35 19.46-15.134 23.116-17.663 24.327-18.918-.043-2.464 22.098-5.317 24.498-9.058 19.569-8.971 2.486 1.19-9.644 12.496-16.889 21.253-10.855 13.75-13.278 16.259-13.255 17.49-13.278 16.26-10.855 13.75-10.856 13.75-16.888 21.253-6.034 7.502-1.297-3.675 18.709-58.27-1.254-1.21-19.44 16.365-13.363 11.329-16.996 15.09-16.997 15.091-18.207 16.345-8.476 8.777-9.71 8.8-12.109 12.54-9.709 8.799-16.953 17.555-8.455 10.01-18.164 18.81-8.455 10.01-3.633 3.762-4.973-2.379-11.22-7.201-12.39-3.482-13.578-.996 1.124-6.184 10.662-24.842 9.516-19.892 22.577-48.474 11.895-24.864 10.726-21.146-17.082 10.161-34.143 21.554-32.932 20.3-29.278 17.77-2.465.044 2.358-6.205 12.044-16.237 14.424-21.21 15.635-22.464 13.234-18.723 15.635-22.464 16.845-23.718 16.846-23.718 16.845-23.717 16.846-23.718 5.99-9.967-58.727 25.681-44.046 19.261-2.486-1.189 20.607-20.085 9.71-8.8 13.341-12.56 9.71-8.8 12.13-11.307 13.363-11.328 16.975-16.324 13.363-11.328 13.342-12.561 13.364-11.329 4.843-5.016 2.465-.043z" style="display:inline;fill:red;stroke-width:1.23264"/><path fill="#a6ff07" d="m378.62 700.424 2.465-.043 13.987 24.412 10.096 13.385 11.308 12.13 11.264 9.667 17.426 9.558 17.34 4.629 23.438.824-6.054 6.27-25.537 20.17-21.905 16.41-15.807 12.604-14.595 11.35-25.538 20.17-17.017 13.859-17.018 13.858-19.44 16.366-13.363 11.329-3.697.064 19.117-34.852 14.337-26.14 17.906-33.599 15.506-29.858 5.968-11.2-30.596 12.862-42.813 19.24-2.486-1.19 12.045-16.236 18.056-24.972 15.635-22.464 16.802-26.183z" style="display:inline;fill:#a02c2c;stroke-width:1.23264"/><g style="display:inline"><path d="m550.66 190.64-23.582 16.165-22.462 18.363-27.353 27.77-23.498 27.191-5.429 11.067.105 13.78 5.14 23.666 6.136 9.325 7.73 1.595 10.982-5.596 3.834-3.336 12.06-8.912-6.009 7.212-13.096 17.74-1.49 21.51-9.304 8.892-.623-9.367-6.715-13.18-2.777-2.735-4.974-1.616-8.268.063-38.524 8.561-15.397 5.079-15.894 12.248-6.569 6.114 1.14 4.953 11.668 12.039-3.294 1.679-11.501 10.01-67.367 57.843-94.202 81.2-9.325 6.135-12.662 2.302-62.21 10.946-8.786 4.477-31.25 22.84.022 2.755 14.403 9.263 31.024 20.161 32.682 20.7 8.29 2.694 9.884-5.037 48.78-37.305 8.206-8.331 2.693-8.29 24.638-22.238 9.864-7.792 7.191 3.253 23.232 10.297 19.915 9.22 21.574 9.76-7.107 7.772-16.412 16.662-2.134 9.388 3.98 15.957-8.765 7.233-19.147 19.44-13.096 17.74-10.878 19.376-3.77 11.606-4.29 16.019.063 8.269 3.897 4.931 16.04 7.045 12.704 3.211 4.952-1.14-2.3-12.662 8.785-4.476 20.91-5.12 10.507 4.33 12.165 4.869-3.295 1.679-7.646 9.43-9.242 17.159-4.288 16.02-.973 17.096 3.483 23.127 6.778 21.448 15.11 29.654 12.27 18.65 15.025 18.629 27.77 27.352 10.529 7.087 22.154 13.613 13.823 5.408 20.993 5.905 19.853.952 17.614-3.442 19.77-10.073 14.795-11.689 16.411-16.662 20.763-24.414 6.527-11.626 4.848-14.921 2.05-20.413-1.783-17.075-5.12-20.91-8.436-21.986-7.835-15.376-1.14-4.953 30.585-37.719 30.025-38.816 7.73 1.595 6.051-1.7 43.33-28.995 7.667-6.673 21.302-26.072 22.4-26.63 3.295-1.68 18.341 19.707 14.984 13.117 17.74 13.095L809.03 676l17.138 6.485 17.118 3.729 20.951.392 15.957-3.98 16.474-8.394 14.796-11.69 19.147-19.439 16.39-19.419 10.9-16.62 4.848-14.922 2.651-13.801.413-18.195-2.902-19.273-7.338-22.546-20.705-40.637 33.88-39.397 25.673-31.066 8.227-5.575 14.858-3.42 19.77-10.074 14.235-12.787 13.117-14.984 6.03-4.456 6.61-.6 10.445-3.939 8.206-8.331 3.791-8.85.477-9.926-2.281-9.905 2.197-1.12 9.842-10.549 15.46 3.19 16.537-.125 14.858-3.42 18.672-9.514 10.961-8.352 14.775-14.445 13.655-16.642 8.164-13.843 4.828-17.678.434-15.438-1.784-17.076-5.659-19.252-16.228-31.85-5.575-8.227-17.243-20.266-19.42-16.39-19.376-10.879-18.237-5.925-13.802-2.652-13.781.105-19.811 4.56-.558-1.099.93-22.609 3.254-7.19 6.59-3.359 1.637-2.217-2.26-7.15-4.435-3.273-8.289-2.694-23.666 5.141-29.136 10.695-18.67 9.514-11.522 7.254-14.796 11.689-16.411 16.662-14.195 18.3-11.976 19.937-25.323 4.602-32.515 1.35-52.906 2.055-60.615 3.216-17.615 3.442-15.936 6.736-25.26 12.87-30.731 18.426-36.74 25.637-30.69 23.938-13.159 9.471 3.253-7.191 1.036-8.828-2.861-13.76-11.752-23.064-6.652-4.911-9.367.622zM406.983 435.39l3.855-.58-5.45 8.31-1.015 11.585 4.687 36.348-9.346 3.379-34.46 35.543-2.694 8.29 4.001 18.712-4.932 3.896-20.454-7.562-21.014-8.661-12.165-4.87-4.477-8.785.539-1.658 14.774-14.445 54.209-48.372z" style="stroke-width:1.23264"/></g><g style="display:inline"><path d="m524.83 346.293 75.782-38.613 11.542-4.497 22.112 8.1 16.04 7.045 15.481 5.947 16.04 7.045 9.41 4.89-6.486 17.138-7.045 16.04-9.2 22.672-5.407 13.823-32.452 9.618-118.265 33.974-6.61.601.392-20.95 2.463-38.608 1.47-24.267 2.113-12.144zM761.558 159.27l9.346-3.379 52.906-2.055 38.027-1.391 25.904-.748.02 2.756-64.008 64.433-45.961 45.553-17.51 17.222-6.03 4.456-26.354 14.812-29.225-1.71-12.165-4.87-13.263-4.31-12.165-4.868-16.6-8.143 50.872-52.206 56.902-56.661zM375.055 804.432l7.688-3.917 12.123-.643 12.144 2.112 14.382 6.506 19.398 13.635 16.663 16.411 13.368 18.09 10.072 19.77 5.1 18.153.125 16.537-3.792 8.85-3.273 4.434-12.082 6.156-11.024.084-16.02-4.289-17.719-10.34-16.642-13.655-15.004-15.873-9.472-13.158-10.073-19.77-4.56-19.81-.105-13.781 4.33-10.507zm35.584 39.973-1.035 8.828 3.938 10.444 8.352 10.962 12.186 7.625 6.072 1.057 7.128-5.016-.083-11.025-5.596-10.983-11.109-10.94-12.165-4.87z" style="stroke-width:1.23264"/><path fill="#ff00c2" d="M353.664 746.16c17.772-9.213 38.281-4.742 57.223-3.09 17.043-10.762 27.654-30.322 47.296-37.183 40.828 11.137 73.359 41.81 96.724 76.001 18.79 30.37 35.053 66.268 27.945 102.779-4.62 24.576-24.654 41.544-40.64 59.18-4.7 3.066-12.7 16.635-17.695 11.266 15.485-24.697 10.126-56.09-.591-81.522-18.659-45.179-52.287-84.805-95.408-108.208-21.668-11.05-47.916-19.637-71.65-9.832-12.645 3.062-18.303 16.236-27.306 24.157 4.249-13.363 13.343-24.772 24.102-33.548m138.369.052c-6.33 10.417-20.916 14.735-23.7 27.276 2.491 7.835 11.696-6.906 16.531-10.097 3.668-4.186 15.502-16.821 9.62-18.524l-1.25.858zm55.584 60.218c-6.954 11.232-21.803 16.731-25.05 30.265 1.856 10.087 14.154-9.24 18.815-14.169 1.8-3.193 16.424-18.246 6.235-16.096m23.07 61.567c-7.733 11.292-22.827 21.008-25.743 33.448 11.1 2.661 15.324-16.992 23.904-22.7 1.31-2.243 8.395-11.5 1.838-10.748" style="fill:#4d4d4d;stroke-width:1.23264"/><path d="M1093.932 81.223c16.65-5.91 34.465.45 49.885 7.043 34.007 17.855 59.979 49.51 72.948 85.452 7.625 20.462 9.69 43.809 1.301 64.384-7.031 15.34-18.44 28.279-31.135 39.218 1.212-11.677 5.535-23.182 3.59-35.046-.507-16.828-6.795-32.765-15.064-47.205l-8.013-15.727c9.598-12.424-.42-30.414 10.253-42.388 2.31-2.44 8.497-13.305.146-10.739-1.273 6.347-9.064 19.429-13.07 8.27-6.346-10.45-15.587-21.59-28.54-23.144-8.227-.628-16.736-.19-23.697 4.962-6.914 5.235-15.795 5.128-23.06.872-8.99-3.292-2.859-17.469.25-23.211 3.165-5.047 3.45-7.033 4.206-12.741" style="fill:#4d4d4d;stroke-width:1.23264"/><path d="m1210.508 187.835-14.733 19.958 1.14 4.952 8.206-8.33 7.625-12.187-.042-5.512z" style="fill:#4d4d4d;stroke-width:1.23264"/><path fill="#ff01c3" d="m691.644 535.215 1.099-.56 3.378 9.346 7.94 29.157-5.325 24.847-5.324 24.848-5.345 22.091-3.19 15.46-3.211 12.704-35.104 23.42-9.884 5.036-17.139-6.485-14.382-6.506-17.139-6.485-16.04-7.045-15.48-5.947-16.04-7.044-20.455-7.563-11.067-5.428 2.113-12.144 4.393-2.239 15.48 5.947 20.455 7.562 12.165 4.87 16.04 7.044 14.921 4.848 16.04 7.045 16.58 5.387 5.533 2.714 16.474-8.394 15.355-10.59 2.694-8.29 4.827-17.678 2.652-13.801 4.267-18.776 4.247-21.532 4.785-23.19 3.17-18.215z" style="fill:#fff;stroke-width:1.23264"/><path d="m558.474 203.26 10.983-5.597 3.875 2.176 6.156 12.08 2.3 12.663-1.594 7.73-9.843 10.548-37.237 32.808-8.787 4.477-4.973-1.616-2.218-1.637-5.057-12.641-1.784-17.076 3.792-8.849 16.971-15.564zM511.17 580.135l19.768-10.073 41.218-16.851 35.187-12.395 19.251-5.659 2.756-.02 5.596 10.982 22.468 54.956-2.196 1.12-32.808-37.238-2.217-1.637-68.821 11.548-39.643 6.365z" style="stroke-width:1.23264"/><path d="m968.157 287.8 8.786-4.476 10.465-1.182 12.165 4.87 1.119 2.196 2.756-.02 6.114 6.568 3.358 6.59 2.756-.021-2.197 1.119 4.498 11.542.105 13.781-4.869 12.165-4.372 4.995-13.18 6.715-13.221 1.203-11.605-3.77-12.207-10.382-5.037-9.885-1.762-14.32 2.113-12.143 7.086-10.528z" style="fill:#4d4d4d;stroke-width:1.23264"/><path d="m978.146 296.545-3.813 6.093-2.133 9.388.042 5.512 7.834 15.376 6.653 4.911 9.388 2.134 8.786-4.477 5.428-11.066 1.057-6.072-1.14-4.953-6.715-13.18-8.87-6.547-8.829-1.036z" style="fill:#4d4d4d;stroke-width:1.23264"/><ellipse cx="737.819" cy="732.752" rx="18.114" ry="24.097" style="display:inline;fill:#000;stroke:#0f0;stroke-width:0" transform="rotate(-27)"/><ellipse cx="738.534" cy="733.081" rx="13.463" ry="19.073" style="display:inline;fill:#fff;stroke:#0f0;stroke-width:0" transform="rotate(-27)"/><path d="m1114.637 121.86 8.787-4.477 10.465-1.182c.358-.04 4.973 1.616 4.973 1.616l11.627 6.527 6.673 7.667 7.275 14.277 1.741 11.564-1.574 10.486-4.35 7.75-2.736 2.778-12.082 6.156-11.584-1.015-9.968-5.988-8.352-10.962-2.067 1.068-4.298-.227-3.562-1.317-5.036-9.885-.105-13.78 2.693-8.29 3.813-6.093z" style="fill:#4d4d4d;stroke-width:1.23264"/><path d="m1125.186 131.702-4.87 12.165 1.743 11.564 3.917 7.687 8.331 8.206 9.388 2.134 8.248-2.819 6.009-7.212.476-9.926-1.721-8.808-4.477-8.786-11.088-8.185-6.071-1.056z" style="fill:#4d4d4d;stroke-width:1.23264"/><ellipse cx="947.139" cy="651.741" rx="18.114" ry="24.097" style="display:inline;fill:#000;stroke:#0f0;stroke-width:0" transform="rotate(-27)"/><path fill="#ff01c3" d="m576.56 697.61 6.05-1.7 4.436 3.274 2.798 5.492-17.986 27.148-16.909 23.833-2.756.021-10.03-14.257 13.095-17.74 19.664-23.854z" style="fill:#666;stroke-width:1.23264"/><path fill="#ff01c3" d="m1059.237 303.647 8.786-4.476 8.828 1.035 7.191 3.253 6.114 6.569 5.057 12.64-1.552 13.243-2.715 5.533-2.735 2.777-7.688 3.918-8.269.062-8.85-3.791-8.91-12.06-2.302-12.662 2.673-11.046zm5.015 7.129-3.253 7.191.042 5.512 6.156 12.082 6.092 3.812 5.513-.042 6.59-3.357 3.791-8.85-.02-2.756-7.276-14.277-7.19-3.253-2.757.02z" style="fill:#4d4d4d;stroke-width:1.23264"/><path fill="#fc00c1" d="m1116.635 239.816 9.885-5.037 7.17.497 7.191 3.253 5.554 5.47 5.037 9.885 1.182 10.465-1.595 7.73-4.911 6.653-8.786 4.477-8.829-1.036-9.968-5.988-7.835-15.376 1.015-11.585 3.253-7.19zm7.751 4.351-4.91 6.653.062 8.268 5.037 9.885 6.652 4.91 4.414.518 7.688-3.917 2.694-8.29-.021-2.755-7.275-14.278-7.191-3.253z" style="fill:#4d4d4d;stroke-width:1.23264"/><path fill="#fff" d="m1064.252 310.776 7.688-3.917 7.73 1.595 2.217 1.637 7.276 14.277-2.134 9.388-1.637 2.218-10.444 3.938-4.974-1.616-2.777-2.735-6.156-12.082 1.035-8.828z" style="stroke-width:1.23264"/><path fill="#fff" d="M703.74 167.978c24.637-13.69 50.944-26.516 79.945-24.83 58.971-3.53 118.263-2.613 176.865-10.823 37.481-3.632 75.476-4.676 112.828.873 8.251 24.033-31.839 7.645-45.115 9.072-37.106-2.967-74.538-1.131-111.344 4.244-23.194 16.197-40.157 39.57-60.987 58.527-28.632 29.1-65.578 69.16-94.628 97.844-21.195 7.962-23.384 26.086-46.279 19.772-29.425-10.841-70.338-24.48-99.825-35.156 10.371-20.34 35.642-34.826 50.685-52.832 23.01-23.308 46.215-46.425 69.81-69.139-38.907 18.098-75.345 40.94-109.118 67.377-31.148 23.57-61.112 48.644-91.265 73.46-9.5 1.012-27.314 2.416-10.006-7.475 57.511-46.16 114.256-94.107 178.435-130.914m57.818-8.708c-39.336 38.942-78.8 77.769-117.078 117.758 17.312 11.371 56.502 19.405 60.094 21.1.71.768 26.224 5.307 25.313 4.197 0 0 20.04-15.036 28.923-19.997 42.402-41.43 88.327-86.964 130.155-128.984-9.432-4.291-37.375 1.146-54.465-.215-23.11 1.594-46.898.977-69.568 4.422z" style="fill:#fff;stroke-width:1.23264"/><path fill="#fff" d="m515.149 305.573 2.004-.245 17.29.098-1.078 3.316-7.667 6.674-24.016 31.604-2.155 6.632-1.945 34.193-1.946 34.194-1.428 29.779.56 1.098 78.664-22.096 81.958-23.776 7.71-1.16-2.673 11.045-1.616 4.973-7.688 3.918-143.568 41.332c-8.853 2.685-26.956 6.12-26.133 5.575l-53.357 52.912-51.41 53.863-16.412 16.663-2.756.02 5.946-15.48 32.824-33.325 49.794-48.89 26.814-26.113 1.616-4.974 1.407-32.535 1.945-34.194 2.443-41.363 1.553-13.243 16.93-21.076z" style="fill:#fff;stroke-width:1.23264"/><path fill="#fefefe" d="M833.789 306.461c20.382-5.544 41.589-7.31 62.643-7.418 12.451-.027 3.132 13.625-5.555 10.66-13.924 2.4-28.366 4.186-40.586 11.843-18.141 7.501-30.617 23.385-43.018 37.908-7.816 10.025-14.088 21.146-21.908 31.168-21.931-1.83-45.285-3.088-65.882 5.935-12.303 4.59-21.733 14.361-27.69 25.875-6.639 12.037-10.26 25.65-13.69 38.932a405 405 0 0 0-4.967 32.095c-4.915-6.54-1.773-16.937-2.761-25.054.777-25.658 7.491-51.61 21.956-72.989 9.742-9.612 23.182-14.537 35.739-19.408 14.374-3.406 29.078-6.298 43.906-6.233 6.467-5.385 13.324-12.404 16.371-19.933 3.066-7.077 10.367-12.397 15.413-18.566 8.397-9.1 20.309-18.835 30.767-25.444.567-.39-1.305 1.02-.738.63" style="fill:#fff;stroke-width:1.23264"/><path fill="#fff" d="m549.604 196.711 19.769-10.073 8.29 2.694 2.776 2.735 6.716 13.18 4.54 17.054-.477 9.927-4.35 7.75-26.276 24.456-24.1 20.58-12.08 6.155-8.83-1.035-6.092-3.813-6.135-9.325-4.56-19.81-29.529 31.646-9.283 11.647-2.113 12.144.021 2.756-2.756.02-2.903-19.271 1.596-7.73 12.557-16.082 25.694-28.31 22.442-21.119 25.758-20.041zm8.87 6.548-27.416 19.503-16.97 15.564-3.793 8.85 1.784 17.075 5.057 12.64 4.435 3.275 2.756-.021 8.787-4.477 37.237-32.808 9.843-10.548 1.595-7.73-2.301-12.662-6.156-12.081-3.875-2.176zM1003.909 59.304l17.572-8.954 24.184-9.555 22.007-5.68 11.025-.083 4.995 4.372-11.522 7.254-6.548 8.87-5.946 15.48-3.149 20.973-.91 25.365-.517 4.414-6.611.602-8.828-1.036-1.161-7.709.93-22.609 3.15-20.972 4.847-14.921-14.298 4.518-37.342 19.027-16.993 12.808-19.706 18.342-13.676 13.885-2.757.021 6.527-11.626 15.831-20.517 13.677-13.886 14.795-11.689z" style="fill:#fff;stroke-width:1.23264"/><path fill="#fefffe" d="m406.13 395.706 1.367-1.97 13.534 4.062 1.55 3.15-26.706 23.502-67.346 60.6-64.611 57.822-37.237 32.807-5.555-5.47-3.896-4.932 4.372-4.995 39.973-35.584 26.296-21.7 7.108-7.771 26.834-23.357 14.236-12.787 27.374-25.015z" style="fill:#fff;stroke-width:1.23264"/><path fill="#fff" d="M311.652 658.276c10.874-6.78-.398 7.435-3.136 10.68-10.374 13.808-17.833 29.614-24.217 45.568 6.255-.132 13.47-3.133 20.086-4.486 20.112-5.944 41.126-8.03 62.036-7.9 10.461.462 21.914 1.128 26.731-10.44 15.827-21.99 34.395-41.992 55.003-59.56 6.466-6.137 13.447-11.613 22.349-6.404 5.745.612 16.146 4.762 6.441 9.386-23.528 20.082-45.664 42.143-63.015 67.904-7.885 6.453-7.81 23.173-19.63 22.82-21.724-1.542-43.696-2.932-65.314.551-13.615 2.057-27.038 5.653-39.988 10.298-13.607.801 3.762 15.728-3.223 17.801-7.476-1.127-14.595-4.58-21.294-7.899-4.903-8.806.65-19.483 3.333-28.392 5.737-15.313 14.376-29.511 25.19-41.774 5.3-6.974 12.247-12.275 18.648-18.153" style="fill:#fff;stroke-width:1.23264"/><g style="fill:#111111"><path fill="#a6ff05" d="M578 387c28.711.235 57.443-.493 86.14.408l58.287 2.603c-8.868 10.992-17.193 22.643-22.223 35.935-3.957 8.007-6.286 16.645-9.204 25.054 7.69-.21 15.352.213 23 1-2.083 5.376-3.283 11.247-5.462 16.462-9.102 9.484-16.073 20.815-24.78 30.681C670.2 516.391 656.173 533.256 642 550c-10.346 3.333-21.262 3.128-32 3-10.807-12.138-22.635-23.507-32.292-36.584-11.09-11.71-59.589-68.605-62.088-71.569 0 0-37.664-37.824-64.077-43.711-3.191-1.461-8.34-.866-10.543-2.79 5.805-1.454 13.105-1.57 19.484-2.51 29.645-3.284 59.407-5.52 89.129-7.92zm-19 48c6.657 4.332 14.934 5.307 22.286 8.199C602.15 449.929 623.012 456.665 644 463c4.738 13.355 7.327 27.335 11 41 4.236.328 1.537-6.88 2.814-9.768 1.025-16.079 3.44-32.1 3.186-48.232-13.592-4.235-27.864-5.405-41.901-7.39-19.987-2.112-39.966-4.233-60.099-3.61" style="display:inline;fill:#111111" transform="rotate(-27 691.612 928.62)scale(1.23264)"/><path fill="#a6ff05" d="m0 0 35 10 39 12 5 5 3 19 1 10-31 6-14 2-5-5-12-21-11-19L0 2Z" style="display:inline;fill:#111111" transform="rotate(-27 1290.224 119.701)scale(1.23264)"/><path fill="#a6ff05" d="M530 241c3.546 3 8.43 3.071 12.675 4.432 12.622 3.174 25.339 6.039 37.724 10.075 2.536.571 3.985 3.435 4.84 5.721-.169 2.419 2.073 5.937-1.108 7.21-3.162 2.856-7.387 3.807-11.182 5.499-2.31.76-4.579 2.198-6.915 2.527-2.812-.001-5.45-.857-5.33-4.007-1.125-4.192-7.183-8.668-10.852-10.38-3.455-1.19-8.99-3.444-12.714-3.578-1.57-.48-3.95 1.54-3.734-.873-.916-5.188-2.488-11.438-3.404-16.626" style="display:inline;fill:#111111" transform="rotate(-27 691.612 928.62)scale(1.23264)"/><path fill="#191919" d="m403 328 5 5 13 16 9 11 9 11 2 3 2.218 2.784L435 382l-3-1-13-17-12-15-13-17 1-2z" style="fill:#111111" transform="rotate(-27 691.612 928.62)scale(1.23264)"/></g><g style="fill:#2f2f2f"><path fill="#fff" d="m0 0 4 1 13 15 12 14 10 11 3 5-11.93 6.001L27 49 16 35 4 21-7 7l-3.216-4.072Z" style="fill:#2f2f2f" transform="rotate(-27 1271.398 -331.92)scale(1.23264)"/><path fill="#2b2b2b" d="M829 345c12.481-.01 24.91 1.5 37.287 2.915 8.564 1.536 27.734 7.183 27.734 7.183s-9.619 2.51-13.348 3.375c-11.069 3.071-22.416 5.797-32.817 10.807-6.41 3.678-18.708 10.457-19.867 10.067.705 1.279-11.51-3.527-17.268-5.233-11.24-4.305-23.15-7.516-35.288-6.88-5.284.028-12.548 1.44-17.797 1.994.796-5.766 13.83-10.88 13.83-10.88 19.924-5.768 30.374-11.007 46.357-12.742 3.72-.31 7.449-.462 11.177-.606" style="fill:#2f2f2f" transform="rotate(-27 691.612 928.62)scale(1.23264)"/><path fill="#fefffe" d="M267 285c4.74.048 9.51-.097 14.23.073L335 302c2.005 1.433 4.258 2.646 6.108 4.216 1.211 2.766 3.217 5.285 3.268 8.414.841 6.367 1.953 12.715 2.624 19.094-.113 2.126.63 6.866.234 8.874-1.708 1.6-3.051 1.744-5.463 2.478-3.093.922-4.097 1.246-7.231 1.913-1.538-.117-6.404 1.141-6.71.84-.622.228-.889-3.44-1.37-5.142-.873-6.63-1.572-13.308-2.555-19.909L321 316c-11.983-3.952-23.881-8.174-36.047-11.543Q265.477 298.727 246 293c-1.053-1.066-2.776-2.066-1.062-3.406.566-1.711 2.118-1.857 3.692-1.97z" style="display:inline;fill:#2f2f2f" transform="rotate(-27 691.612 928.62)scale(1.23264)"/><path fill="#fff" d="M545 236h12l38 10 5 4 1 2v10l-12 5-4-1-2-8-7-3-38-10-8.002-3.502 2.287-2.784L539 237Z" style="display:inline;fill:#2f2f2f" transform="rotate(-27 691.612 928.62)scale(1.23264)"/><path fill="#262626" d="M525.35 260.49c0-.182 11.226-2.336 11.226-2.336.022.298 15.631 4.949 15.908 5.085 0 0-5.971 1.44-8.123 2.531-28.352 7.375-56.53 15.401-84.86 22.855-12.987 3.443-26.232 6.004-38.92 10.473-18.53 4.202-36.997 8.665-55.318 13.715-4.368 1.138-8.477 4.733-13.06 4.21-2.334-3.667-4.87-9.356-7.203-13.023 8.382-3.572 17.536-4.734 26.28-7.176 52.9-12.97 101.26-22.996 154.07-36.333M667 197h2l-3 16 1 9 4 6 5.866 2.101L657 234l-35 8h-5l-3-3v-8l1.899-7.618L623 215l3-3 29-11z" style="fill:#2f2f2f" transform="rotate(-27 691.612 928.62)scale(1.23264)"/><path fill="#292929" d="M835 217h42c-21.88 9.43-45.735 14.64-68.277 22.759-21.605 6.977-42.97 14.772-64.723 21.241 18.486 21.479 38.47 41.555 57 63 19.113-1.665 38.903-.295 57.518-4.84 11.897-3.076 23.062-7.472 35.501-2.322 2.232.5 26.662 7.897 26.662 7.897-.086-.521-9.783-11.04-9.243-10.735-.235-.564 6.991-1.66 13.646-5.716 6.087-.06 19.253 9.199 19.253 9.199 4.269 4.228-8.417-14.063-8.417-14.063-.608.21 10.76-5.731 14.737-6.212s22.476 12.095 21.858 11.666c-2.781.28-11.689-15.911-12.15-15.748-.426.151 14.462-3.359 14.458-2.864.128.252 14.895 7.134 17.438 7.545s-9.937-12.737-7.738-12.56c0 0-.78-6.687 4.225-8.71 2.502-1.01 4.292-2.174 5.2-2.102 1.453.113 6.282-1.912 6.282-1.912.788-.242 9.92-1.989 11.79-1.49 37.566 13.753 78.132 30.083 108.787 56.177.013 8.301-13.47-1.867-18.807-3.21-7.329.302-19.95.998-22 9 8.254 5.308 14.5 13.146.47 14.574-12.349 4.023-24.471 10.369-36.896 13.14-11.477-2.464-22.367-13.953-34.382-6.161-12.812 1.678-11.02 6.626-1.909 13.32 13.008 7.553-3.345 8.683-6.773 15.78-5.352 6.983-16.954 3.326-23.408 10.29-10.442 8.224-13.668 21.405-12.102 34.144-.442 8.247-15.302-2.122-21.981-1.083C946.19 440.98 950.998 454.746 953 469c-10.753.934-12.516-9.795-16.583-17.332-2.981-9.632-10.498-18.638-10.939-28.537 4.403-11.663 14.798-20.754 21.284-31.597 3.149-6.15 14.083-14.642 4.951-20.211-31.374-17.23-66.532-28.042-102.167-31.323-22.35-.591-45.197-.542-66.1 8.518C759.723 356.534 739.235 372.084 722 390c-60.71-1.93-121.563-3.592-182.244-.38-33.278 2.862-100.157 9.903-99.756 9.38l2.526-8.62 133.924-44.166s55.265 10.508 84.97 17.002c1.157.048 63.301 10.59 62.58 10.784 0 0 10.347-10.73 16.38-16.89 12.375-10.886 25.134-21.342 37.62-32.11-13.82-18.006-29.102-34.891-44-52-27.686-1.935-55.606-.93-83.347-.638-10.972-1.892-13.784 11.144-18.93 18.242-9.002 15.936-18.51 32.806-27.571 48.71l-10.724-2.571c-.302-.072 6.375-12.213 6.533-12.046C612.454 304.125 622.426 282.894 636 263c16.93-8.616 33.676-18.173 52.915-20.224C737.146 231.93 785.562 220.598 835 217" style="fill:#2f2f2f" transform="rotate(-27 691.612 928.62)scale(1.23264)"/><path fill="#2e2e2e" d="M416 414h15l17 3 16 5 14 6 15 9 11 8 2.36 2.142L480 454l-26 9-24 11-5 3-6-1-19-10-15-6-21-6-20-4 5-6 16-12 21-12 7-3 11-2z" style="fill:#2f2f2f" transform="rotate(-27 691.612 928.62)scale(1.23264)"/><path fill="#202020" d="M1094 250h34l13 2-6 7-7 8-10 16-8 15-19-9-24-11-29-11 3-3 28-9 17-4z" style="fill:#2f2f2f" transform="rotate(-27 691.612 928.62)scale(1.23264)"/><path fill="#2e2e2e" d="M595 276h3l-2 5-5 8-31 12-16 7-12 19-11 18h-2l3-12 10-29 8-7 30-12zM506 337h3l-3 9-2 3-27 9-5 8-5 1 2-11 2-5 3-3 27-9z" style="fill:#2f2f2f" transform="rotate(-27 691.612 928.62)scale(1.23264)"/></g><path fill="#fff" d="m1124.386 244.167 7.15-2.26 7.19 3.254 7.275 14.278-1.035 8.828-1.637 2.217-7.688 3.917-8.29-2.693-2.777-2.735-5.036-9.885-.063-8.268z" style="stroke-width:1.23264"/><path fill="red" d="m328.676 614.659 13.974-12.297-1.847 8.915 8.086 14.191-26.338 16.187-3.959-13.2 2.155-6.632z" style="stroke-width:1.23264"/><path d="m880.158 459.914 4.953-1.14.58 3.854-13.655 16.642-13.117 14.983-3.854.58-3.337-3.833 10.381-12.206zM933.028 525.664l3.336 3.834-11.997 17.18-15.852 17.761-2.197 1.12-2.798-5.492 9.283-11.647zM948.346 582.88l2.756-.02-4.33 10.506-15.831 20.517-7.108 7.772-3.294 1.679-.602-6.61 6.548-8.87zM547.617 806.43l2.196-1.12 1.14 4.953-14.194 18.3-11.48 12.766-2.196 1.118-2.798-5.491 9.283-11.647zM492.033 746.212l6.051-1.7-1.616 4.974-21.861 24.973-4.932 3.896-3.896-4.931 22.42-23.875zM812.618 422.389l2.756-.021.581 3.854-24.596 27.75-5.513.042-1.12-2.196 7.647-9.43 3.295-1.679-.02-2.756 2.755-.02-.02-2.757 10.402-9.45zM570.686 867.997l2.757-.021-2.694 8.29-14.194 18.299-10.94 11.108-1.7-6.05 10.92-13.865zM1210.508 187.835c4.469.207.865 5.94-.165 8.211-3.043 5.227-7.257 9.649-10.525 14.723-3.074 3.243-5.502-3.023-2.785-5.03 4.817-5.708 8.927-11.979 13.474-17.903z" style="stroke-width:1.23264"/><path d="M1127.458 87.514c4.47.208.865 5.94-.165 8.211-3.043 5.227-7.257 9.65-10.525 14.724-3.074 3.242-5.502-3.024-2.784-5.03 4.818-5.71 8.927-11.98 13.474-17.905z" style="display:inline;stroke-width:1.23264"/><g style="display:inline"><path fill="#fff" d="M969.417 235.972c17.755-6.49 39.48-3.682 53.547 9.457 4.762 4.35 7.99 10.032 10.435 15.93 7.017 14.243 18.466 26.713 21.098 42.817.71 4.258-2.15 9.601-6.332 10.992-4.473-.124-6.846-4.723-9.017-8.022-3.433-5.972-5.966-12.401-9.51-18.315-7.413-13.948-14.305-29.205-27.493-38.722-7.215-4.162-15.918-2.604-23.856-2.69-4.743-.117-10.865.35-13.918-4.068-1.656-2.818 4.178-4.742 5.046-7.38M1041.612 160.451c20.019-6.797 46.455-2.033 55.95 18.806 10.574 17.311 18.424 36.079 28.1 53.876-14.216 15.626-25.13-12.918-29.777-23.484-9.15-15.55-18.556-42.005-41.03-38.242-8.14 2.49-28.039-1.183-13.243-10.956" style="display:inline;fill:#fff;stroke-width:1.23264"/><path fill="#ff01c3" d="m1050.184 345.613 4.952-1.14 4.436 3.273 3.357 6.59-13.117 14.984-10.94 11.108-4.933 3.897-17.572 8.954-18.713 4-9.367.623-3.4-12.102-.58-3.855 11.563-1.741 11.564-1.742 12.64-5.057 12.06-8.912zM1080.445 202.526c5.808-.465 10.63 4.942 11.41 10.323-.32 4.726-5.214 7.006-7.536 10.672-12.09 14.58-25.091 28.376-38.125 42.11-4.398-3.03-5.043-8.804-8.18-12.81-1.342-3.874 3.471-5.995 5.167-8.808 12.221-14.007 24.613-27.867 37.264-41.487M1149.375 195.466l8.786-4.477c2.256 4.57 4.747 9.026 6.851 13.671 1.04 4.145 2.57 8.19 3.265 12.406.011 3.446.111 6.892.037 10.338-1.464 3.492-2.844 7.02-4.36 10.49l-7.572 9.338c-1.557-.032-3.92 1.471-4.672-.694l-5.877-9.149 8.724-12.745c.5-2.618 1.153-5.206 1.56-7.842z" style="display:inline;fill:#fff;stroke-width:1.23264"/><path fill="#ff01c3" d="m923.818 401.699 3.294-1.679 9.43 7.646-7.066 13.284-16.348 24.931-3.316-1.077-5.554-5.47-1.7-6.051z" style="display:inline;fill:#999;stroke-width:1.23264"/><path fill="#ff01c3" d="m1110.69 269.332 11.19 14.304-25.113 25.79-2.197 1.12-10.57-12.6c9.663-9.735 15.833-20.156 26.69-28.614" style="display:inline;fill:#fff;stroke-width:1.23264"/><path fill="#fff" d="M1012.954 275.748c8.432-3.62 17.27 9.084 10.368 15.566-3.052 7.414-12.841 9.2-16.022.849-5.745-6.285 1.665-11.096 5.267-15.63zM1106.745 171.534c4.072-4.36 10.417.53 12.007 4.557l1.837 3.606c-1.426 3.567-2.765 6.469-6.23 8.367-1.4.879-4.881 5.668-6.025 2.878l-7.06-13.854z" style="display:inline;fill:#fff;stroke-width:1.23264"/><ellipse cx="947.855" cy="652.069" rx="13.463" ry="19.073" style="display:inline;fill:#fff;stroke:#0f0;stroke-width:0" transform="rotate(-27)"/></g></g><g style="display:inline"><path d="M768.52 422.723c14.73-8.74 31.674-14.158 48.946-12.417 9.557-.195 18.924 3.105 28.068 5.73 8.493 5.389 20.743 7.638 29.49 14.752 10.546 7.005 18.133 15.281 28.57 22.581 23.17 23.29 43.524 51.084 51.969 83.264 4.194 16.455 7.12 34.146 2.463 50.772-2.84 20.675-18.076 36.224-30.817 51.576-8.435 9.72-17.44 18.99-28.406 25.863.768-11.976 12.445-23.463 9.435-37.045.586-18.645-4.833-37.058-12.667-53.813-8.086-16.06-16.537-31.58-27.985-45.571-17.467-22.394-40.778-39.266-66.4-51.824-18.294-8.925-34.753-13.977-55.128-9.959-11.313 5.082-25.475 6.305-34.98 14.41 12.61-18.633 28.584-34.736 45.705-49.22 3.999-2.922 7.85-6.03 11.736-9.099" style="display:inline;fill:#4d4d4d;stroke-width:1.23264"/><path d="M933.028 525.664c-9.657 11.19-19.861 21.905-29.178 33.387 2.54 13.987 12.998-5.925 17.784-9.632 2.7-6.88 19.313-16.604 11.394-23.755M954.098 577.728c-9.657 11.19-19.86 21.905-29.177 33.387 2.539 13.987 12.997-5.925 17.784-9.632 2.7-6.88 19.312-16.605 11.393-23.755M886.405 457.688c-9.657 11.19-19.86 21.905-29.177 33.387 2.539 13.987 12.997-5.925 17.784-9.632 2.7-6.88 19.312-16.605 11.393-23.755M817.199 419.028c-9.657 11.189-19.861 21.904-29.177 33.386 2.538 13.988 12.997-5.925 17.783-9.631 2.7-6.881 19.313-16.605 11.394-23.755" style="display:inline;fill:#000;stroke-width:1.23264"/><ellipse cx="153.755" cy="982.97" rx="75.241" ry="131.269" style="display:inline;fill:#666;stroke:#0f0;stroke-width:0" transform="matrix(.66474 -.74707 .7161 .698 0 0)"/><ellipse cx="161.969" cy="985.18" rx="52.96" ry="95.097" style="display:inline;fill:#fff;stroke:#0f0;stroke-width:0" transform="matrix(.655 -.75562 .70816 .70605 0 0)"/><ellipse cx="160.331" cy="984.664" rx="41.896" ry="75.229" style="display:inline;fill:#000;stroke:#0f0;stroke-width:0" transform="matrix(.655 -.75562 .70816 .70605 0 0)"/><ellipse cx="164.93" cy="984.292" rx="13.041" ry="23.416" style="display:inline;fill:#fff;stroke:#0f0;stroke-width:0" transform="matrix(.655 -.75562 .70816 .70605 0 0)"/><ellipse cx="-312.24" cy="895.104" rx="75.241" ry="131.269" style="display:inline;fill:#666;stroke:#0f0;stroke-width:0" transform="matrix(.66474 -.74707 .7161 .698 0 0)"/><ellipse cx="-305.404" cy="891.197" rx="52.96" ry="95.097" style="display:inline;fill:#fff;stroke:#0f0;stroke-width:0" transform="matrix(.655 -.75562 .70816 .70605 0 0)"/><ellipse cx="-307.042" cy="890.68" rx="41.896" ry="75.229" style="display:inline;fill:#000;stroke:#0f0;stroke-width:0" transform="matrix(.655 -.75562 .70816 .70605 0 0)"/><ellipse cx="-302.443" cy="890.309" rx="13.041" ry="23.416" style="display:inline;fill:#fff;stroke:#0f0;stroke-width:0" transform="matrix(.655 -.75562 .70816 .70605 0 0)"/></g><path d="M-1149.393 78.477h216.972v34.398h-216.972z" style="display:inline;fill:red;stroke:#0f0;stroke-width:0" transform="rotate(-90)"/><path d="M-886.778-589.06h216.972v34.398h-216.972z" style="display:inline;fill:red;stroke:#0f0;stroke-width:0" transform="rotate(-135)"/><circle cx="-319.965" cy="1020.323" r="52.361" style="display:inline;fill:red;stroke:#0f0;stroke-width:0" transform="rotate(-30)"/><circle cx="-377.339" cy="837.546" r="52.361" style="display:inline;fill:red;stroke:#0f0;stroke-width:0" transform="rotate(-30)"/><circle cx="-509.642" cy="1079.418" r="52.361" style="display:inline;fill:red;stroke:#0f0;stroke-width:0" transform="rotate(-30)"/><circle cx="-319.965" cy="1020.323" r="30.681" style="display:inline;fill:#fff;stroke:#0f0;stroke-width:0" transform="rotate(-30)"/><circle cx="-377.339" cy="837.546" r="30.681" style="display:inline;fill:#fff;stroke:#0f0;stroke-width:0" transform="rotate(-30)"/><circle cx="-509.642" cy="1079.418" r="30.681" style="display:inline;fill:#fff;stroke:#0f0;stroke-width:0" transform="rotate(-30)"/></svg>