{
  "accessors": [
    {
      "bufferView": 2,
      "componentType": 5126,
      "count": 2545,
      "max": [
        0.9892686605453491,
        0.9802901148796082,
        0.9242581129074097
      ],
      "min": [
        -0.9274312257766724,
        -0.9789605736732483,
        -0.9892680644989014
      ],
      "type": "VEC3"
    },
    {
      "bufferView": 2,
      "byteOffset": 30540,
      "componentType": 5126,
      "count": 2545,
      "max": [
        0.9996991753578186,
        1.0,
        0.9989380836486816
      ],
      "min": [
        -0.9989381432533264,
        -1.0,
        -0.9996397495269775
      ],
      "type": "VEC3"
    },
    {
      "bufferView": 1,
      "componentType": 5126,
      "count": 2545,
      "max": [
        0.9814453125,
        -0.01934814453125
      ],
      "min": [
        0.021331787109375,
        -0.9833984375
      ],
      "type": "VEC2"
    },
    {
      "bufferView": 0,
      "componentType": 5125,
      "count": 13104,
      "type": "SCALAR"
    },
    {
      "bufferView": 2,
      "byteOffset": 61080,
      "componentType": 5126,
      "count": 33,
      "max": [
        -0.6453461647033691,
        0.08817640691995621,
        0.7697182297706604
      ],
      "min": [
        -0.7697166800498962,
        -0.0881766602396965,
        0.6453475952148438
      ],
      "type": "VEC3"
    },
    {
      "bufferView": 2,
      "byteOffset": 61476,
      "componentType": 5126,
      "count": 33,
      "max": [
        0.914341390132904,
        0.2746507525444031,
        -0.404943585395813
      ],
      "min": [
        0.4049425721168518,
        -0.2746483385562897,
        -0.914341926574707
      ],
      "type": "VEC3"
    },
    {
      "bufferView": 1,
      "byteOffset": 20360,
      "componentType": 5126,
      "count": 33,
      "max": [
        0.1553955078125,
        -0.84765625
      ],
      "min": [
        0.11383056640625,
        -0.890625
      ],
      "type": "VEC2"
    },
    {
      "bufferView": 0,
      "byteOffset": 52416,
      "componentType": 5125,
      "count": 144,
      "type": "SCALAR"
    }
  ],
  "asset": {
    "extras": {
      "author": "Jako (https://sketchfab.com/fairlight51)",
      "license": "CC-BY-4.0 (http://creativecommons.org/licenses/by/4.0/)",
      "source": "https://sketchfab.com/3d-models/ball-rocket-league-2c8911aa1dcd4c53bad842f2d354dfe2",
      "title": "Ball - Rocket League"
    },
    "generator": "Sketchfab-12.66.0",
    "version": "2.0"
  },
  "bufferViews": [
    {
      "buffer": 0,
      "byteLength": 52992,
      "name": "floatBufferViews",
      "target": 34963
    },
    {
      "buffer": 0,
      "byteLength": 20624,
      "byteOffset": 52992,
      "byteStride": 8,
      "name": "floatBufferViews",
      "target": 34962
    },
    {
      "buffer": 0,
      "byteLength": 61872,
      "byteOffset": 73616,
      "byteStride": 12,
      "name": "floatBufferViews",
      "target": 34962
    }
  ],
  "buffers": [
    {
      "byteLength": 135488,
      "uri": "scene.bin"
    }
  ],
  "extensionsUsed": [
    "KHR_materials_clearcoat"
  ],
  "images": [
    {
      "uri": "textures/Mat.3_baseColor.png"
    }
  ],
  "materials": [
    {
      "doubleSided": true,
      "extensions": {
        "KHR_materials_clearcoat": {
          "clearcoatFactor": 0.09291264615216242,
          "clearcoatRoughnessFactor": 0.5063644212587175
        }
      },
      "name": "Mat.3",
      "pbrMetallicRoughness": {
        "baseColorTexture": {
          "index": 0
        },
        "metallicFactor": 0.45,
        "roughnessFactor": 0.43340234329873717
      }
    },
    {
      "doubleSided": true,
      "emissiveFactor": [
        0.08959033215757944,
        0.6260974828262342,
        1.0
      ],
      "name": "Mat.4",
      "pbrMetallicRoughness": {
        "baseColorFactor": [
          0.396078,
          0.823529,
          0.596078,
          1.0
        ],
        "roughnessFactor": 0.0
      }
    }
  ],
  "meshes": [
    {
      "name": "bola_Mat.3_0",
      "primitives": [
        {
          "attributes": {
            "NORMAL": 1,
            "POSITION": 0,
            "TEXCOORD_0": 2
          },
          "indices": 3,
          "material": 0,
          "mode": 4
        }
      ]
    },
    {
      "name": "bola_Mat.4_0",
      "primitives": [
        {
          "attributes": {
            "NORMAL": 5,
            "POSITION": 4,
            "TEXCOORD_0": 6
          },
          "indices": 7,
          "material": 1,
          "mode": 4
        }
      ]
    }
  ],
  "nodes": [
    {
      "children": [
        1
      ],
      "matrix": [
        1.0,
        0.0,
        0.0,
        0.0,
        0.0,
        2.220446049250313e-16,
        -1.0,
        0.0,
        0.0,
        1.0,
        2.220446049250313e-16,
        0.0,
        0.0,
        0.0,
        0.0,
        1.0
      ],
      "name": "Sketchfab_model"
    },
    {
      "children": [
        2
      ],
      "matrix": [
        0.009999999776482582,
        0.0,
        0.0,
        0.0,
        0.0,
        0.0,
        0.009999999776482582,
        0.0,
        0.0,
        -0.009999999776482582,
        0.0,
        0.0,
        0.0,
        0.0,
        0.0,
        1.0
      ],
      "name": "10eeeb12e4ba40388356d564bda80949.fbx"
    },
    {
      "children": [
        3
      ],
      "name": "RootNode"
    },
    {
      "children": [
        4,
        5
      ],
      "matrix": [
        100.0,
        0.0,
        0.0,
        0.0,
        0.0,
        100.0,
        0.0,
        0.0,
        0.0,
        0.0,
        100.0,
        0.0,
        0.0,
        0.0,
        0.0,
        1.0
      ],
      "name": "bola"
    },
    {
      "mesh": 0,
      "name": "bola_Mat.3_0"
    },
    {
      "mesh": 1,
      "name": "bola_Mat.4_0"
    }
  ],
  "samplers": [
    {
      "magFilter": 9729,
      "minFilter": 9987,
      "wrapS": 10497,
      "wrapT": 10497
    }
  ],
  "scene": 0,
  "scenes": [
    {
      "name": "Sketchfab_Scene",
      "nodes": [
        0
      ]
    }
  ],
  "textures": [
    {
      "sampler": 0,
      "source": 0
    }
  ]
}
